
<svg width="9" height="7" viewBox="0 0 9 7" xmlns="http://www.w3.org/2000/svg">
  <title>
    Fill 1
  </title>
  <path d="M3.234 5.736c-.47-.47-1.69-1.696-2.253-2.258-.076-.077-.135-.16-.136-.275 0-.147.077-.28.207-.33.143-.06.277-.04.39.07.147.142 1.2 1.202 2.003 2.006.056.055.056.055.113-.002.94-.942 2.882-2.883 3.823-3.825.07-.072.153-.12.258-.12.147 0 .276.077.33.208.058.142.038.275-.068.385-.162.168-.328.33-.493.496L3.782 5.72c-.08.08-.165.137-.28.135-.108.003-.194-.042-.268-.117z" stroke="#fff" fill="#fff" fill-rule="evenodd"/>
</svg>
