<svg width="16" height="17" viewBox="0 0 16 17" xmlns="http://www.w3.org/2000/svg">
  <title>
    Page 1
  </title>
  <g fill="currentColor" fill-rule="evenodd">
    <path d="M1.233 6.932c.01.138.02.398.053.654.073.552.22 1.084.452 1.59.388.85.952 1.553 1.706 2.104.852.623 1.81.962 2.86 1.046 1.105.088 2.16-.095 3.138-.62 1.663-.89 2.59-2.3 2.85-4.152.12-.842.04-1.673-.216-2.488-.24-.773-.63-1.462-1.184-2.053-1.03-1.1-2.317-1.655-3.812-1.737-.89-.05-1.752.1-2.574.454-.902.388-1.646.975-2.22 1.77-.716.986-1.04 2.1-1.053 3.432M0 6.765C.02 5.382.444 4.1 1.266 2.948 1.956 1.98 2.836 1.24 3.9.714c.517-.256 1.06-.44 1.624-.55.718-.14 1.44-.167 2.165-.06 1.667.25 3.045 1.026 4.164 2.272.638.71 1.106 1.52 1.4 2.427.266.822.37 1.665.297 2.53-.07.842-.292 1.642-.672 2.395-.69 1.37-1.722 2.408-3.085 3.117-.552.287-1.135.49-1.745.61-.714.14-1.433.165-2.156.058-1.7-.254-3.098-1.05-4.224-2.333C1.07 10.498.63 9.724.34 8.863.117 8.193.01 7.503 0 6.765M12.296 11.73c.233.005.384.084.514.214.625.626 1.252 1.25 1.877 1.874.393.39.787.78 1.176 1.175.304.31.213.804-.178.99-.238.114-.51.06-.714-.142l-2.122-2.116c-.315-.314-.633-.626-.944-.945-.305-.314-.215-.804.18-.99.078-.036.17-.048.212-.06"/>
  </g>
</svg>
